_________________________  Visit us at _________________________
  
http://p2pdl.com  ____________________________  http://p2pdl.com


Rebellion 2011 BRRip 720p x264 AAC - PRiSTiNE


Original Title: L'ordre et la morale
Genre: Action | Drama | History
Plot: Dissidents in a French colony attack a police station and take hostages.
Director: Mathieu Kassovitz
Stars: Mathieu Kassovitz, Iabe Lapacas, Malik Zidi.
Rated: N/a


Info: 
http://www.imdb.com/title/tt1242521/

Trailer:


Format                         : MPEG-4
File size                      : 752 MiB
Duration                       : 2h 14mn
Overall bit rate               : 781 Kbps
Video Format                   : AVC
Video Bit rate                 : 700 Kbps
Width                          : 1 280 pixels
Height                         : 546 pixels
Display aspect ratio           : 2.35:1
Frame rate mode                : Constant
Frame rate                     : 24.000 fps
Stream size                    : 673 MiB (89%)
Writing library                : x264 core 129 r2245
Audio Format                   : AAC
Audio Bit rate                 : 79.2 Kbps
Channel(s)                     : 2 channels
Channel positions              : Front: L R
Sampling rate                  : 48.0 KHz
Stream size                    : 76.2 MiB (10%)
Language                       : French
Subtitle                       : Yes(English)
Source                         : 720p Bluray DD5.1 x264-EbP(Thanks)

Screenshots:
 
http://cdn.piczend.com/images/IMPwMfHH/1363448268_tinybayrebellion2011brr.jpg


----------------------------------------------------------------------------------------------------


Encoded using revolutionary 10bit encoding, which enables us to provide you more crispier 
and sharper images at small sizes, just make sure you follow our instructions without a fault.
Recommend to you to use latest version of VLC player. Install K-Lite Codec Pack or shark007 codecs
in case of any kind of problem in playback (For non-VLC Media Player users). Alternatively, install
Core AVC codecs, the fastest decoder that there is coupled with Community Center Codec Pack and play
on Windows Media Player Classic.

Encoder Notes: Encoder Notes: Looking For Early Access To Anything You Can Provide DVDScr, R5, DVDR, BluRay, Direct
Audio, Music Releases and Seedboxes. We require dedicated servers, so as to do more and fast releases of movies.
If You Got anything to offer contact us at "prg@hush.com".